<?xml version="1.0" standalone="no"?><!DOCTYPE svg PUBLIC "-//W3C//DTD SVG 1.1//EN" "http://www.w3.org/Graphics/SVG/1.1/DTD/svg11.dtd"><svg t="1534755131965" class="icon" style="" viewBox="0 0 1117 1024" version="1.1" xmlns="http://www.w3.org/2000/svg" p-id="7463" xmlns:xlink="http://www.w3.org/1999/xlink" width="218.1640625" height="200"><defs><style type="text/css"></style></defs><path d="M558.499808 1023.788283H144.372324a69.14533 69.14533 0 0 1-74.449884-72.588637c0-32.106513-0.465312-58.629284-0.465312-96.784851a292.122735 292.122735 0 0 1 28.384018-136.336351 1719.420087 1719.420087 0 0 1 138.662911-245.219308c6.979677-10.702171 13.959353-21.869654 21.404341-32.106512a69.796767 69.796767 0 0 1 60.02522-31.17589 54.022698 54.022698 0 0 0 29.314642-1.861247 43.227464 43.227464 0 0 0 1.861247-28.384018v-46.065866a52.859418 52.859418 0 0 1 41.87806-55.837414 85.943086 85.943086 0 0 1 69.331455 6.049053 47.41527 47.41527 0 0 1 28.384019 46.531178c-0.465312 22.800277 0.465312 46.065866 0 69.331455-0.465312 7.444988 0.930624 10.702171 10.236859 10.702171 40.016813-0.930624 80.033626-0.930624 119.585127 0 8.840924 0 10.236859-2.791871 9.771548-10.236859-0.465312-22.334965 0-44.204619 0-66.074273a52.347575 52.347575 0 0 1 42.808684-56.302725 85.012462 85.012462 0 0 1 73.984572 9.306236 46.112397 46.112397 0 0 1 22.800278 41.87806c-0.465312 24.661524 0 48.857737 0 73.519261-0.465312 6.049053 1.395935 7.9103 7.444988 7.444988 8.840924-0.465312 17.681848 0 26.522772 0a64.864462 64.864462 0 0 1 55.372101 26.522772 1318.647051 1318.647051 0 0 1 164.72037 281.978938 304.313904 304.313904 0 0 1 25.126836 128.426051c1.861247 34.898383 0 70.262079 0 105.625774A69.005737 69.005737 0 0 1 974.023227 1023.788283H558.499808zM316.072371 23.833269a559.258228 559.258228 0 0 0-279.187068 156.344758A122.097811 122.097811 0 0 0 0.125673 271.379136c0.465312 21.869654 0 43.739307 0 65.143649A69.14533 69.14533 0 0 0 75.040869 409.576734h126.564804A69.796767 69.796767 0 0 0 279.31274 334.661538a158.206005 158.206005 0 0 1 24.661525-83.75612A222.139843 222.139843 0 0 1 423.559392 158.308374a448.188306 448.188306 0 0 1 166.581617-18.14716 306.454338 306.454338 0 0 1 130.287298 29.314642 190.126393 190.126393 0 0 1 119.585127 175.887853 68.400832 68.400832 0 0 0 69.796767 64.213025h135.87104A67.330614 67.330614 0 0 0 1116.873943 340.710591c0-22.334965-0.465312-44.669931 0-67.004896a124.936213 124.936213 0 0 0-40.016813-96.78485A555.116953 555.116953 0 0 0 817.678469 28.021075 1079.104547 1079.104547 0 0 0 558.499808 0.102369a1148.436003 1148.436003 0 0 0-242.427437 23.7309z m245.684619 522.079817a204.737183 204.737183 0 1 0 206.133119 205.667806 207.715178 207.715178 0 0 0-206.133119-205.667806zM418.906274 751.11558a139.593534 139.593534 0 1 0 140.058846-136.801663A138.337192 138.337192 0 0 0 418.906274 751.11558z m0 0" fill="#B1B5C1" p-id="7464"></path></svg>