<?xml version="1.0" standalone="no"?><!DOCTYPE svg PUBLIC "-//W3C//DTD SVG 1.1//EN" "http://www.w3.org/Graphics/SVG/1.1/DTD/svg11.dtd"><svg t="1534755122983" class="icon" style="" viewBox="0 0 1098 1024" version="1.1" xmlns="http://www.w3.org/2000/svg" p-id="7215" xmlns:xlink="http://www.w3.org/1999/xlink" width="214.453125" height="200"><defs><style type="text/css"></style></defs><path d="M460.457024 0C206.173705 0 0.086194 178.105616 0.086194 397.840738a369.944677 369.944677 0 0 0 126.13311 273.381391v124.888516l81.54233-65.663034a498.524057 498.524057 0 0 0 126.862699 50.212909 292.736966 292.736966 0 0 1-6.695054-60.512993c0-188.4057 180.680637-341.190277 403.419949-341.190276a464.233361 464.233361 0 0 1 188.019447 39.483654c0.386253-6.866723 1.201676-13.304275 1.201677-20.600167 0.343336-219.735122-205.787091-397.840738-460.113328-397.840738z m271.149707 417.153395c-202.010394 0-365.73881 135.61777-365.73881 302.994132s163.728416 302.994132 365.73881 302.994133a417.282146 417.282146 0 0 0 192.869069-45.921207l72.014753 45.921207-10.64342-85.404862a279.73311 279.73311 0 0 0 111.584241-217.589271c0.042917-167.376362-163.728416-302.994132-365.738809-302.994132z m119.824308 265.227158a44.204526 44.204526 0 1 1 44.161609-44.204526 44.118692 44.118692 0 0 1-44.075775 44.204526z m-264.840905 0a44.204526 44.204526 0 1 1 44.118692-44.204526 44.161609 44.161609 0 0 1-44.032858 44.204526z m44.118692-391.832355a50.427494 50.427494 0 1 1 50.470411-50.212909 50.212909 50.212909 0 0 1-50.384577 50.212909z m-340.546521 0a50.427494 50.427494 0 1 1 50.47041-50.212909 50.212909 50.212909 0 0 1-50.384576 50.212909z" fill="#B1B5C1" p-id="7216"></path></svg>